<mxfile host="65bd71144e">
    <diagram id="hU0RgLRizUl-VuXBj8eE" name="Page-1">
        <mxGraphModel dx="1340" dy="1519" grid="1" gridSize="10" guides="1" tooltips="1" connect="1" arrows="1" fold="1" page="1" pageScale="1" pageWidth="850" pageHeight="1100" math="0" shadow="0">
            <root>
                <mxCell id="0"/>
                <mxCell id="1" parent="0"/>
                <mxCell id="2" value="CARRERA" style="swimlane;fontStyle=1;align=center;verticalAlign=top;childLayout=stackLayout;horizontal=1;startSize=26;horizontalStack=0;resizeParent=1;resizeParentMax=0;resizeLast=0;collapsible=1;marginBottom=0;" parent="1" vertex="1">
                    <mxGeometry x="-540" y="-157" width="170" height="216" as="geometry"/>
                </mxCell>
                <mxCell id="3" value="- IdCarrera: int" style="text;strokeColor=none;fillColor=none;align=left;verticalAlign=top;spacingLeft=4;spacingRight=4;overflow=hidden;rotatable=0;points=[[0,0.5],[1,0.5]];portConstraint=eastwest;" parent="2" vertex="1">
                    <mxGeometry y="26" width="170" height="26" as="geometry"/>
                </mxCell>
                <mxCell id="4" value="+ NombreUniversidad: String&#10;" style="text;strokeColor=none;fillColor=none;align=left;verticalAlign=top;spacingLeft=4;spacingRight=4;overflow=hidden;rotatable=0;points=[[0,0.5],[1,0.5]];portConstraint=eastwest;" parent="2" vertex="1">
                    <mxGeometry y="52" width="170" height="26" as="geometry"/>
                </mxCell>
                <mxCell id="5" value="+ Facultad: String" style="text;strokeColor=none;fillColor=none;align=left;verticalAlign=top;spacingLeft=4;spacingRight=4;overflow=hidden;rotatable=0;points=[[0,0.5],[1,0.5]];portConstraint=eastwest;" parent="2" vertex="1">
                    <mxGeometry y="78" width="170" height="26" as="geometry"/>
                </mxCell>
                <mxCell id="6" value="+ NomCarrera: String&#10;" style="text;strokeColor=none;fillColor=none;align=left;verticalAlign=top;spacingLeft=4;spacingRight=4;overflow=hidden;rotatable=0;points=[[0,0.5],[1,0.5]];portConstraint=eastwest;" parent="2" vertex="1">
                    <mxGeometry y="104" width="170" height="26" as="geometry"/>
                </mxCell>
                <mxCell id="7" value="+ PeriodoLectivo: string" style="text;strokeColor=none;fillColor=none;align=left;verticalAlign=top;spacingLeft=4;spacingRight=4;overflow=hidden;rotatable=0;points=[[0,0.5],[1,0.5]];portConstraint=eastwest;" parent="2" vertex="1">
                    <mxGeometry y="130" width="170" height="26" as="geometry"/>
                </mxCell>
                <mxCell id="8" value="" style="line;strokeWidth=1;fillColor=none;align=left;verticalAlign=middle;spacingTop=-1;spacingLeft=3;spacingRight=3;rotatable=0;labelPosition=right;points=[];portConstraint=eastwest;strokeColor=inherit;" parent="2" vertex="1">
                    <mxGeometry y="156" width="170" height="8" as="geometry"/>
                </mxCell>
                <mxCell id="9" value="+ Carrera(): void" style="text;strokeColor=none;fillColor=none;align=left;verticalAlign=top;spacingLeft=4;spacingRight=4;overflow=hidden;rotatable=0;points=[[0,0.5],[1,0.5]];portConstraint=eastwest;" parent="2" vertex="1">
                    <mxGeometry y="164" width="170" height="26" as="geometry"/>
                </mxCell>
                <mxCell id="10" value="+ Mostrar(): void" style="text;strokeColor=none;fillColor=none;align=left;verticalAlign=top;spacingLeft=4;spacingRight=4;overflow=hidden;rotatable=0;points=[[0,0.5],[1,0.5]];portConstraint=eastwest;" parent="2" vertex="1">
                    <mxGeometry y="190" width="170" height="26" as="geometry"/>
                </mxCell>
                <mxCell id="11" value="CURSO" style="swimlane;fontStyle=1;align=center;verticalAlign=top;childLayout=stackLayout;horizontal=1;startSize=26;horizontalStack=0;resizeParent=1;resizeParentMax=0;resizeLast=0;collapsible=1;marginBottom=0;" parent="1" vertex="1">
                    <mxGeometry x="80" y="-280" width="175" height="216" as="geometry"/>
                </mxCell>
                <mxCell id="12" value="- IdCurso: int&#10;" style="text;strokeColor=none;fillColor=none;align=left;verticalAlign=top;spacingLeft=4;spacingRight=4;overflow=hidden;rotatable=0;points=[[0,0.5],[1,0.5]];portConstraint=eastwest;" parent="11" vertex="1">
                    <mxGeometry y="26" width="175" height="26" as="geometry"/>
                </mxCell>
                <mxCell id="13" value="+ Paralelo: String" style="text;strokeColor=none;fillColor=none;align=left;verticalAlign=top;spacingLeft=4;spacingRight=4;overflow=hidden;rotatable=0;points=[[0,0.5],[1,0.5]];portConstraint=eastwest;" parent="11" vertex="1">
                    <mxGeometry y="52" width="175" height="26" as="geometry"/>
                </mxCell>
                <mxCell id="14" value="+ Nivel: String" style="text;strokeColor=none;fillColor=none;align=left;verticalAlign=top;spacingLeft=4;spacingRight=4;overflow=hidden;rotatable=0;points=[[0,0.5],[1,0.5]];portConstraint=eastwest;" parent="11" vertex="1">
                    <mxGeometry y="78" width="175" height="26" as="geometry"/>
                </mxCell>
                <mxCell id="15" value="+ Seccion: String&#10;" style="text;strokeColor=none;fillColor=none;align=left;verticalAlign=top;spacingLeft=4;spacingRight=4;overflow=hidden;rotatable=0;points=[[0,0.5],[1,0.5]];portConstraint=eastwest;" parent="11" vertex="1">
                    <mxGeometry y="104" width="175" height="26" as="geometry"/>
                </mxCell>
                <mxCell id="16" value="+ Materias:  String&#10;" style="text;strokeColor=none;fillColor=none;align=left;verticalAlign=top;spacingLeft=4;spacingRight=4;overflow=hidden;rotatable=0;points=[[0,0.5],[1,0.5]];portConstraint=eastwest;" parent="11" vertex="1">
                    <mxGeometry y="130" width="175" height="26" as="geometry"/>
                </mxCell>
                <mxCell id="17" value="" style="line;strokeWidth=1;fillColor=none;align=left;verticalAlign=middle;spacingTop=-1;spacingLeft=3;spacingRight=3;rotatable=0;labelPosition=right;points=[];portConstraint=eastwest;strokeColor=inherit;" parent="11" vertex="1">
                    <mxGeometry y="156" width="175" height="8" as="geometry"/>
                </mxCell>
                <mxCell id="18" value="+ Curso(): void " style="text;strokeColor=none;fillColor=none;align=left;verticalAlign=top;spacingLeft=4;spacingRight=4;overflow=hidden;rotatable=0;points=[[0,0.5],[1,0.5]];portConstraint=eastwest;" parent="11" vertex="1">
                    <mxGeometry y="164" width="175" height="26" as="geometry"/>
                </mxCell>
                <mxCell id="19" value="+ Mostrar(): void" style="text;strokeColor=none;fillColor=none;align=left;verticalAlign=top;spacingLeft=4;spacingRight=4;overflow=hidden;rotatable=0;points=[[0,0.5],[1,0.5]];portConstraint=eastwest;" parent="11" vertex="1">
                    <mxGeometry y="190" width="175" height="26" as="geometry"/>
                </mxCell>
                <mxCell id="20" value="ACTA CALIFICACION" style="swimlane;fontStyle=1;align=center;verticalAlign=top;childLayout=stackLayout;horizontal=1;startSize=26;horizontalStack=0;resizeParent=1;resizeParentMax=0;resizeLast=0;collapsible=1;marginBottom=0;" parent="1" vertex="1">
                    <mxGeometry x="-222.5" y="-131" width="202.5" height="138" as="geometry"/>
                </mxCell>
                <mxCell id="21" value="- IdCalificacion: int&#10;" style="text;strokeColor=none;fillColor=none;align=left;verticalAlign=top;spacingLeft=4;spacingRight=4;overflow=hidden;rotatable=0;points=[[0,0.5],[1,0.5]];portConstraint=eastwest;" parent="20" vertex="1">
                    <mxGeometry y="26" width="202.5" height="26" as="geometry"/>
                </mxCell>
                <mxCell id="22" value="- Fecha: date" style="text;strokeColor=none;fillColor=none;align=left;verticalAlign=top;spacingLeft=4;spacingRight=4;overflow=hidden;rotatable=0;points=[[0,0.5],[1,0.5]];portConstraint=eastwest;" parent="20" vertex="1">
                    <mxGeometry y="52" width="202.5" height="26" as="geometry"/>
                </mxCell>
                <mxCell id="23" value="" style="line;strokeWidth=1;fillColor=none;align=left;verticalAlign=middle;spacingTop=-1;spacingLeft=3;spacingRight=3;rotatable=0;labelPosition=right;points=[];portConstraint=eastwest;strokeColor=inherit;" parent="20" vertex="1">
                    <mxGeometry y="78" width="202.5" height="8" as="geometry"/>
                </mxCell>
                <mxCell id="24" value="+ ActaCalificacion() : void" style="text;strokeColor=none;fillColor=none;align=left;verticalAlign=top;spacingLeft=4;spacingRight=4;overflow=hidden;rotatable=0;points=[[0,0.5],[1,0.5]];portConstraint=eastwest;" parent="20" vertex="1">
                    <mxGeometry y="86" width="202.5" height="26" as="geometry"/>
                </mxCell>
                <mxCell id="25" value="+ ImprimirAccta() : void " style="text;strokeColor=none;fillColor=none;align=left;verticalAlign=top;spacingLeft=4;spacingRight=4;overflow=hidden;rotatable=0;points=[[0,0.5],[1,0.5]];portConstraint=eastwest;" parent="20" vertex="1">
                    <mxGeometry y="112" width="202.5" height="26" as="geometry"/>
                </mxCell>
                <mxCell id="26" value="PROFESOR" style="swimlane;fontStyle=1;align=center;verticalAlign=top;childLayout=stackLayout;horizontal=1;startSize=26;horizontalStack=0;resizeParent=1;resizeParentMax=0;resizeLast=0;collapsible=1;marginBottom=0;" parent="1" vertex="1">
                    <mxGeometry x="170" y="290" width="180" height="164" as="geometry"/>
                </mxCell>
                <mxCell id="27" value="- IdProfesor: int" style="text;strokeColor=none;fillColor=none;align=left;verticalAlign=top;spacingLeft=4;spacingRight=4;overflow=hidden;rotatable=0;points=[[0,0.5],[1,0.5]];portConstraint=eastwest;" parent="26" vertex="1">
                    <mxGeometry y="26" width="180" height="26" as="geometry"/>
                </mxCell>
                <mxCell id="28" value="+ Nombres: string" style="text;strokeColor=none;fillColor=none;align=left;verticalAlign=top;spacingLeft=4;spacingRight=4;overflow=hidden;rotatable=0;points=[[0,0.5],[1,0.5]];portConstraint=eastwest;" parent="26" vertex="1">
                    <mxGeometry y="52" width="180" height="26" as="geometry"/>
                </mxCell>
                <mxCell id="29" value="+ Apellidos: string" style="text;strokeColor=none;fillColor=none;align=left;verticalAlign=top;spacingLeft=4;spacingRight=4;overflow=hidden;rotatable=0;points=[[0,0.5],[1,0.5]];portConstraint=eastwest;" parent="26" vertex="1">
                    <mxGeometry y="78" width="180" height="26" as="geometry"/>
                </mxCell>
                <mxCell id="30" value="" style="line;strokeWidth=1;fillColor=none;align=left;verticalAlign=middle;spacingTop=-1;spacingLeft=3;spacingRight=3;rotatable=0;labelPosition=right;points=[];portConstraint=eastwest;strokeColor=inherit;" parent="26" vertex="1">
                    <mxGeometry y="104" width="180" height="8" as="geometry"/>
                </mxCell>
                <mxCell id="31" value="+ Profesor(): void" style="text;strokeColor=none;fillColor=none;align=left;verticalAlign=top;spacingLeft=4;spacingRight=4;overflow=hidden;rotatable=0;points=[[0,0.5],[1,0.5]];portConstraint=eastwest;" parent="26" vertex="1">
                    <mxGeometry y="112" width="180" height="26" as="geometry"/>
                </mxCell>
                <mxCell id="32" value="+ Mostrar(): void" style="text;strokeColor=none;fillColor=none;align=left;verticalAlign=top;spacingLeft=4;spacingRight=4;overflow=hidden;rotatable=0;points=[[0,0.5],[1,0.5]];portConstraint=eastwest;" parent="26" vertex="1">
                    <mxGeometry y="138" width="180" height="26" as="geometry"/>
                </mxCell>
                <mxCell id="33" value="ESTUDIANTE" style="swimlane;fontStyle=1;align=center;verticalAlign=top;childLayout=stackLayout;horizontal=1;startSize=26;horizontalStack=0;resizeParent=1;resizeParentMax=0;resizeLast=0;collapsible=1;marginBottom=0;" parent="1" vertex="1">
                    <mxGeometry x="120" y="59" width="180" height="138" as="geometry"/>
                </mxCell>
                <mxCell id="34" value="+ Nombres: string" style="text;strokeColor=none;fillColor=none;align=left;verticalAlign=top;spacingLeft=4;spacingRight=4;overflow=hidden;rotatable=0;points=[[0,0.5],[1,0.5]];portConstraint=eastwest;" parent="33" vertex="1">
                    <mxGeometry y="26" width="180" height="26" as="geometry"/>
                </mxCell>
                <mxCell id="35" value="+ Apellidos: string" style="text;strokeColor=none;fillColor=none;align=left;verticalAlign=top;spacingLeft=4;spacingRight=4;overflow=hidden;rotatable=0;points=[[0,0.5],[1,0.5]];portConstraint=eastwest;" parent="33" vertex="1">
                    <mxGeometry y="52" width="180" height="26" as="geometry"/>
                </mxCell>
                <mxCell id="36" value="" style="line;strokeWidth=1;fillColor=none;align=left;verticalAlign=middle;spacingTop=-1;spacingLeft=3;spacingRight=3;rotatable=0;labelPosition=right;points=[];portConstraint=eastwest;strokeColor=inherit;" parent="33" vertex="1">
                    <mxGeometry y="78" width="180" height="8" as="geometry"/>
                </mxCell>
                <mxCell id="37" value="+ Estudiante(): void" style="text;strokeColor=none;fillColor=none;align=left;verticalAlign=top;spacingLeft=4;spacingRight=4;overflow=hidden;rotatable=0;points=[[0,0.5],[1,0.5]];portConstraint=eastwest;" parent="33" vertex="1">
                    <mxGeometry y="86" width="180" height="26" as="geometry"/>
                </mxCell>
                <mxCell id="38" value="+ Mostrar(): void" style="text;strokeColor=none;fillColor=none;align=left;verticalAlign=top;spacingLeft=4;spacingRight=4;overflow=hidden;rotatable=0;points=[[0,0.5],[1,0.5]];portConstraint=eastwest;" parent="33" vertex="1">
                    <mxGeometry y="112" width="180" height="26" as="geometry"/>
                </mxCell>
                <mxCell id="39" style="edgeStyle=none;html=1;exitX=1;exitY=0.5;exitDx=0;exitDy=0;entryX=0;entryY=0.5;entryDx=0;entryDy=0;endArrow=none;endFill=0;" parent="1" source="5" target="22" edge="1">
                    <mxGeometry relative="1" as="geometry">
                        <mxPoint x="-240" y="-65.66599999999994" as="targetPoint"/>
                    </mxGeometry>
                </mxCell>
                <mxCell id="40" style="edgeStyle=none;html=1;entryX=0.033;entryY=-0.104;entryDx=0;entryDy=0;endArrow=none;endFill=0;entryPerimeter=0;exitX=1;exitY=0.5;exitDx=0;exitDy=0;" parent="1" source="43" target="35" edge="1">
                    <mxGeometry relative="1" as="geometry">
                        <mxPoint x="-10" y="-20" as="sourcePoint"/>
                        <mxPoint x="80" y="38.99999999999977" as="targetPoint"/>
                    </mxGeometry>
                </mxCell>
                <mxCell id="41" style="edgeStyle=none;html=1;exitX=1;exitY=0;exitDx=0;exitDy=0;entryX=0.025;entryY=-0.115;entryDx=0;entryDy=0;entryPerimeter=0;endArrow=none;endFill=0;startArrow=none;startFill=0;" parent="1" target="14" edge="1">
                    <mxGeometry relative="1" as="geometry">
                        <mxPoint x="-30" y="-140" as="sourcePoint"/>
                        <mxPoint x="-110.07999999999993" y="-179.9960000000001" as="targetPoint"/>
                    </mxGeometry>
                </mxCell>
                <mxCell id="42" value="NOTAS" style="swimlane;fontStyle=1;align=center;verticalAlign=top;childLayout=stackLayout;horizontal=1;startSize=26;horizontalStack=0;resizeParent=1;resizeParentMax=0;resizeLast=0;collapsible=1;marginBottom=0;" parent="1" vertex="1">
                    <mxGeometry x="-240" y="160" width="210" height="320" as="geometry"/>
                </mxCell>
                <mxCell id="43" value="+ N1: Float" style="text;strokeColor=none;fillColor=none;align=left;verticalAlign=top;spacingLeft=4;spacingRight=4;overflow=hidden;rotatable=0;points=[[0,0.5],[1,0.5]];portConstraint=eastwest;" parent="42" vertex="1">
                    <mxGeometry y="26" width="210" height="26" as="geometry"/>
                </mxCell>
                <mxCell id="44" value="+ N2: Float" style="text;strokeColor=none;fillColor=none;align=left;verticalAlign=top;spacingLeft=4;spacingRight=4;overflow=hidden;rotatable=0;points=[[0,0.5],[1,0.5]];portConstraint=eastwest;" parent="42" vertex="1">
                    <mxGeometry y="52" width="210" height="26" as="geometry"/>
                </mxCell>
                <mxCell id="45" value="+ N3: Float" style="text;strokeColor=none;fillColor=none;align=left;verticalAlign=top;spacingLeft=4;spacingRight=4;overflow=hidden;rotatable=0;points=[[0,0.5],[1,0.5]];portConstraint=eastwest;" parent="42" vertex="1">
                    <mxGeometry y="78" width="210" height="26" as="geometry"/>
                </mxCell>
                <mxCell id="46" value="+ N4: Float" style="text;strokeColor=none;fillColor=none;align=left;verticalAlign=top;spacingLeft=4;spacingRight=4;overflow=hidden;rotatable=0;points=[[0,0.5],[1,0.5]];portConstraint=eastwest;" parent="42" vertex="1">
                    <mxGeometry y="104" width="210" height="26" as="geometry"/>
                </mxCell>
                <mxCell id="47" value="+ Exm1: Float" style="text;strokeColor=none;fillColor=none;align=left;verticalAlign=top;spacingLeft=4;spacingRight=4;overflow=hidden;rotatable=0;points=[[0,0.5],[1,0.5]];portConstraint=eastwest;" parent="42" vertex="1">
                    <mxGeometry y="130" width="210" height="26" as="geometry"/>
                </mxCell>
                <mxCell id="48" value="+ Exm2: Float" style="text;strokeColor=none;fillColor=none;align=left;verticalAlign=top;spacingLeft=4;spacingRight=4;overflow=hidden;rotatable=0;points=[[0,0.5],[1,0.5]];portConstraint=eastwest;" parent="42" vertex="1">
                    <mxGeometry y="156" width="210" height="26" as="geometry"/>
                </mxCell>
                <mxCell id="49" value="+ Exm2: Float" style="text;strokeColor=none;fillColor=none;align=left;verticalAlign=top;spacingLeft=4;spacingRight=4;overflow=hidden;rotatable=0;points=[[0,0.5],[1,0.5]];portConstraint=eastwest;" parent="42" vertex="1">
                    <mxGeometry y="182" width="210" height="26" as="geometry"/>
                </mxCell>
                <mxCell id="50" value="+ AcataCalificacion = [ &lt;lista&gt;]" style="text;strokeColor=none;fillColor=none;align=left;verticalAlign=top;spacingLeft=4;spacingRight=4;overflow=hidden;rotatable=0;points=[[0,0.5],[1,0.5]];portConstraint=eastwest;" parent="42" vertex="1">
                    <mxGeometry y="208" width="210" height="26" as="geometry"/>
                </mxCell>
                <mxCell id="51" value="" style="line;strokeWidth=1;fillColor=none;align=left;verticalAlign=middle;spacingTop=-1;spacingLeft=3;spacingRight=3;rotatable=0;labelPosition=right;points=[];portConstraint=eastwest;strokeColor=inherit;" parent="42" vertex="1">
                    <mxGeometry y="234" width="210" height="8" as="geometry"/>
                </mxCell>
                <mxCell id="52" value="+ Mostrar(): void" style="text;strokeColor=none;fillColor=none;align=left;verticalAlign=top;spacingLeft=4;spacingRight=4;overflow=hidden;rotatable=0;points=[[0,0.5],[1,0.5]];portConstraint=eastwest;" parent="42" vertex="1">
                    <mxGeometry y="242" width="210" height="26" as="geometry"/>
                </mxCell>
                <mxCell id="53" value="+ AgregarNotas (): void" style="text;strokeColor=none;fillColor=none;align=left;verticalAlign=top;spacingLeft=4;spacingRight=4;overflow=hidden;rotatable=0;points=[[0,0.5],[1,0.5]];portConstraint=eastwest;" parent="42" vertex="1">
                    <mxGeometry y="268" width="210" height="26" as="geometry"/>
                </mxCell>
                <mxCell id="54" value="+ CalcularNotaFinal(): void" style="text;strokeColor=none;fillColor=none;align=left;verticalAlign=top;spacingLeft=4;spacingRight=4;overflow=hidden;rotatable=0;points=[[0,0.5],[1,0.5]];portConstraint=eastwest;" parent="42" vertex="1">
                    <mxGeometry y="294" width="210" height="26" as="geometry"/>
                </mxCell>
                <mxCell id="55" style="edgeStyle=none;html=1;exitX=0.553;exitY=1.218;exitDx=0;exitDy=0;endArrow=diamond;endFill=0;exitPerimeter=0;" parent="1" source="25" edge="1">
                    <mxGeometry relative="1" as="geometry">
                        <mxPoint x="-121.25" y="290" as="sourcePoint"/>
                        <mxPoint x="-119.99999999999977" y="150" as="targetPoint"/>
                    </mxGeometry>
                </mxCell>
                <mxCell id="56" style="edgeStyle=none;html=1;entryX=0;entryY=-0.308;entryDx=0;entryDy=0;endArrow=none;endFill=0;entryPerimeter=0;exitX=1.004;exitY=-0.249;exitDx=0;exitDy=0;exitPerimeter=0;" parent="1" source="48" target="29" edge="1">
                    <mxGeometry relative="1" as="geometry">
                        <mxPoint x="-20" y="209" as="sourcePoint"/>
                        <mxPoint x="135.94000000000005" y="118.29600000000005" as="targetPoint"/>
                    </mxGeometry>
                </mxCell>
            </root>
        </mxGraphModel>
    </diagram>
</mxfile>